<svg width="42" height="22" viewBox="0 0 42 22" fill="none" xmlns="http://www.w3.org/2000/svg">
<g opacity="0.2" clip-path="url(#clip0_409_255)">
<path d="M41.4155 1.20984L40.8922 0.65C40.0901 -0.198737 38.7815 -0.144564 38.047 0.767443L30.8032 9.79638C30.17 10.5818 30.1784 11.7466 30.82 12.5231L38.0385 21.2721C38.7814 22.166 40.0732 22.2111 40.8667 21.3624L41.3902 20.8026C42.0994 20.0442 42.15 18.8342 41.5084 18.0036L37.1857 12.4598C36.5947 11.7014 36.5863 10.6088 37.1604 9.83235L41.5506 3.96356C42.1754 3.15105 42.1162 1.95925 41.4155 1.20992V1.20984Z" fill="#F5EE31"/>
<path d="M37.1942 12.4779L41.5168 18.0217C42.1585 18.8434 42.1078 20.0622 41.3986 20.8207L40.8752 21.3805C40.0816 22.2292 38.7899 22.1841 38.0469 21.2902L36.485 19.3941C35.894 18.1482 35.5647 16.7396 35.5647 15.2499C35.5647 13.408 36.0713 11.7014 36.9325 10.2659C36.6117 10.9701 36.6961 11.8458 37.1942 12.4779Z" fill="#575400"/>
</g>
<g opacity="0.5" clip-path="url(#clip1_409_255)">
<path d="M26.4155 1.20984L25.8922 0.65C25.0901 -0.198737 23.7815 -0.144564 23.047 0.767443L15.8032 9.79638C15.17 10.5818 15.1784 11.7466 15.82 12.5231L23.0385 21.2721C23.7814 22.166 25.0732 22.2111 25.8667 21.3624L26.3902 20.8026C27.0994 20.0442 27.15 18.8342 26.5084 18.0036L22.1857 12.4598C21.5947 11.7014 21.5863 10.6088 22.1604 9.83235L26.5506 3.96356C27.1754 3.15105 27.1162 1.95925 26.4155 1.20992V1.20984Z" fill="#F5EE31"/>
<path d="M22.1942 12.4779L26.5168 18.0217C27.1585 18.8434 27.1078 20.0622 26.3986 20.8207L25.8752 21.3805C25.0816 22.2292 23.7899 22.1841 23.0469 21.2902L21.485 19.3941C20.894 18.1482 20.5647 16.7396 20.5647 15.2499C20.5647 13.408 21.0713 11.7014 21.9325 10.2659C21.6117 10.9701 21.6961 11.8458 22.1942 12.4779Z" fill="#575400"/>
</g>
<g clip-path="url(#clip2_409_255)">
<path d="M11.4155 1.20984L10.8922 0.65C10.0901 -0.198737 8.7815 -0.144564 8.04696 0.767443L0.803188 9.79638C0.169959 10.5818 0.178389 11.7466 0.820047 12.5231L8.03845 21.2721C8.78142 22.166 10.0732 22.2111 10.8667 21.3624L11.3902 20.8026C12.0994 20.0442 12.15 18.8342 11.5084 18.0036L7.18574 12.4598C6.59474 11.7014 6.58631 10.6088 7.16038 9.83235L11.5506 3.96356C12.1754 3.15105 12.1162 1.95925 11.4155 1.20992V1.20984Z" fill="#F5EE31"/>
<path d="M7.19418 12.4779L11.5168 18.0217C12.1585 18.8434 12.1078 20.0622 11.3986 20.8207L10.8752 21.3805C10.0816 22.2292 8.78985 22.1841 8.04688 21.2902L6.485 19.3941C5.894 18.1482 5.5647 16.7396 5.5647 15.2499C5.5647 13.408 6.07125 11.7014 6.93247 10.2659C6.61168 10.9701 6.69605 11.8458 7.19418 12.4779Z" fill="#575400"/>
</g>
<defs>
<clipPath id="clip0_409_255">
<rect width="12" height="22" fill="white" transform="matrix(-1 0 0 1 42 0)"/>
</clipPath>
<clipPath id="clip1_409_255">
<rect width="12" height="22" fill="white" transform="matrix(-1 0 0 1 27 0)"/>
</clipPath>
<clipPath id="clip2_409_255">
<rect width="12" height="22" fill="white" transform="matrix(-1 0 0 1 12 0)"/>
</clipPath>
</defs>
</svg>
