<svg width="42" height="22" viewBox="0 0 42 22" fill="none" xmlns="http://www.w3.org/2000/svg">
<g opacity="0.2" clip-path="url(#clip0_409_256)">
<path d="M0.584511 1.20984L1.10784 0.65C1.9099 -0.198737 3.2185 -0.144564 3.95304 0.767443L11.1968 9.79638C11.83 10.5818 11.8216 11.7466 11.18 12.5231L3.96155 21.2721C3.21858 22.166 1.92683 22.2111 1.13329 21.3624L0.6098 20.8026C-0.0993733 20.0442 -0.150029 18.8342 0.49163 18.0036L4.81426 12.4598C5.40526 11.7014 5.41369 10.6088 4.83963 9.83235L0.449404 3.96356C-0.175395 3.15105 -0.116233 1.95925 0.584511 1.20992V1.20984Z" fill="#F5EE31"/>
<path d="M4.80582 12.4779L0.483191 18.0217C-0.158467 18.8434 -0.107812 20.0622 0.601361 20.8207L1.12477 21.3805C1.9184 22.2292 3.21014 22.1841 3.95311 21.2902L5.51499 19.3941C6.106 18.1482 6.43529 16.7396 6.43529 15.2499C6.43529 13.408 5.92874 11.7014 5.06753 10.2659C5.38832 10.9701 5.30394 11.8458 4.80582 12.4779Z" fill="#575400"/>
</g>
<g opacity="0.5" clip-path="url(#clip1_409_256)">
<path d="M15.5845 1.20984L16.1078 0.65C16.9099 -0.198737 18.2185 -0.144564 18.953 0.767443L26.1968 9.79638C26.83 10.5818 26.8216 11.7466 26.18 12.5231L18.9616 21.2721C18.2186 22.166 16.9268 22.2111 16.1333 21.3624L15.6098 20.8026C14.9006 20.0442 14.85 18.8342 15.4916 18.0036L19.8143 12.4598C20.4053 11.7014 20.4137 10.6088 19.8396 9.83235L15.4494 3.96356C14.8246 3.15105 14.8838 1.95925 15.5845 1.20992V1.20984Z" fill="#F5EE31"/>
<path d="M19.8058 12.4779L15.4832 18.0217C14.8415 18.8434 14.8922 20.0622 15.6014 20.8207L16.1248 21.3805C16.9184 22.2292 18.2101 22.1841 18.9531 21.2902L20.515 19.3941C21.106 18.1482 21.4353 16.7396 21.4353 15.2499C21.4353 13.408 20.9287 11.7014 20.0675 10.2659C20.3883 10.9701 20.3039 11.8458 19.8058 12.4779Z" fill="#575400"/>
</g>
<g clip-path="url(#clip2_409_256)">
<path d="M30.5845 1.20984L31.1078 0.65C31.9099 -0.198737 33.2185 -0.144564 33.953 0.767443L41.1968 9.79638C41.83 10.5818 41.8216 11.7466 41.18 12.5231L33.9616 21.2721C33.2186 22.166 31.9268 22.2111 31.1333 21.3624L30.6098 20.8026C29.9006 20.0442 29.85 18.8342 30.4916 18.0036L34.8143 12.4598C35.4053 11.7014 35.4137 10.6088 34.8396 9.83235L30.4494 3.96356C29.8246 3.15105 29.8838 1.95925 30.5845 1.20992V1.20984Z" fill="#F5EE31"/>
<path d="M34.8058 12.4779L30.4832 18.0217C29.8415 18.8434 29.8922 20.0622 30.6014 20.8207L31.1248 21.3805C31.9184 22.2292 33.2101 22.1841 33.9531 21.2902L35.515 19.3941C36.106 18.1482 36.4353 16.7396 36.4353 15.2499C36.4353 13.408 35.9287 11.7014 35.0675 10.2659C35.3883 10.9701 35.3039 11.8458 34.8058 12.4779Z" fill="#575400"/>
</g>
<defs>
<clipPath id="clip0_409_256">
<rect width="12" height="22" fill="white"/>
</clipPath>
<clipPath id="clip1_409_256">
<rect width="12" height="22" fill="white" transform="translate(15)"/>
</clipPath>
<clipPath id="clip2_409_256">
<rect width="12" height="22" fill="white" transform="translate(30)"/>
</clipPath>
</defs>
</svg>
