<svg width="50" height="49" viewBox="0 0 50 49" fill="none" xmlns="http://www.w3.org/2000/svg">
<g clip-path="url(#clip0_408_226)">
<g filter="url(#filter0_d_408_226)">
<path d="M25 49C38.531 49 49.5 38.031 49.5 24.5C49.5 10.969 38.531 0 25 0C11.469 0 0.5 10.969 0.5 24.5C0.5 38.031 11.469 49 25 49Z" stroke="url(#paint0_linear_408_226)"/>
</g>
<path d="M25 15.5H21C18.2386 15.5 16 17.7386 16 20.5V28.5C16 31.2614 18.2386 33.5 21 33.5H29C31.7614 33.5 34 31.2614 34 28.5V20.5C34 17.7386 31.7614 15.5 29 15.5H25Z" stroke="#F5EE31" stroke-width="2" stroke-linecap="round" stroke-linejoin="round"/>
<path d="M25 20.5C27.2091 20.5 29 22.2909 29 24.5C29 26.7091 27.2091 28.5 25 28.5C22.7909 28.5 21 26.7091 21 24.5C21 22.2909 22.7909 20.5 25 20.5Z" stroke="#F5EE31" stroke-width="2" stroke-linecap="round" stroke-linejoin="round"/>
<path d="M30 21C30.8284 21 31.5 20.3284 31.5 19.5C31.5 18.6716 30.8284 18 30 18C29.1716 18 28.5 18.6716 28.5 19.5C28.5 20.3284 29.1716 21 30 21Z" fill="#F5EE31"/>
</g>
<defs>
<filter id="filter0_d_408_226" x="0" y="-0.5" width="136" height="136" filterUnits="userSpaceOnUse" color-interpolation-filters="sRGB">
<feFlood flood-opacity="0" result="BackgroundImageFix"/>
<feColorMatrix in="SourceAlpha" type="matrix" values="0 0 0 0 0 0 0 0 0 0 0 0 0 0 0 0 0 0 127 0" result="hardAlpha"/>
<feOffset dx="46" dy="46"/>
<feGaussianBlur stdDeviation="20"/>
<feComposite in2="hardAlpha" operator="out"/>
<feColorMatrix type="matrix" values="0 0 0 0 0.0173077 0 0 0 0 0.0865384 0 0 0 0 0.09 0 0 0 0.2 0"/>
<feBlend mode="normal" in2="BackgroundImageFix" result="effect1_dropShadow_408_226"/>
<feBlend mode="normal" in="SourceGraphic" in2="effect1_dropShadow_408_226" result="shape"/>
</filter>
<linearGradient id="paint0_linear_408_226" x1="13.0556" y1="-18.5556" x2="52.6738" y2="36.0672" gradientUnits="userSpaceOnUse">
<stop stop-color="white"/>
<stop offset="0.237864" stop-opacity="0"/>
<stop offset="0.472362" stop-color="#F5EE31"/>
<stop offset="0.812781" stop-color="#E6DE1F"/>
<stop offset="1" stop-color="#000749" stop-opacity="0"/>
</linearGradient>
<clipPath id="clip0_408_226">
<rect width="50" height="49" fill="white"/>
</clipPath>
</defs>
</svg>
