<svg width="25" height="24" viewBox="0 0 25 24" fill="none" xmlns="http://www.w3.org/2000/svg">
<path d="M7.7001 3.60001C6.74532 3.60001 5.82964 3.97929 5.15451 4.65442C4.47938 5.32955 4.1001 6.24523 4.1001 7.20001V9.00001C4.1001 9.15914 4.16331 9.31175 4.27583 9.42427C4.38836 9.53679 4.54097 9.60001 4.7001 9.60001C4.85923 9.60001 5.01184 9.53679 5.12436 9.42427C5.23688 9.31175 5.3001 9.15914 5.3001 9.00001V7.20001C5.3001 6.56349 5.55295 5.95304 6.00304 5.50295C6.45313 5.05286 7.06358 4.80001 7.7001 4.80001H9.5001C9.65923 4.80001 9.81184 4.73679 9.92436 4.62427C10.0369 4.51175 10.1001 4.35914 10.1001 4.20001C10.1001 4.04088 10.0369 3.88826 9.92436 3.77574C9.81184 3.66322 9.65923 3.60001 9.5001 3.60001H7.7001ZM15.5001 3.60001C15.341 3.60001 15.1884 3.66322 15.0758 3.77574C14.9633 3.88826 14.9001 4.04088 14.9001 4.20001C14.9001 4.35914 14.9633 4.51175 15.0758 4.62427C15.1884 4.73679 15.341 4.80001 15.5001 4.80001H17.3001C17.9366 4.80001 18.5471 5.05286 18.9972 5.50295C19.4472 5.95304 19.7001 6.56349 19.7001 7.20001V9.00001C19.7001 9.15914 19.7633 9.31175 19.8758 9.42427C19.9884 9.53679 20.141 9.60001 20.3001 9.60001C20.4592 9.60001 20.6118 9.53679 20.7244 9.42427C20.8369 9.31175 20.9001 9.15914 20.9001 9.00001V7.20001C20.9001 6.24523 20.5208 5.32955 19.8457 4.65442C19.1706 3.97929 18.2549 3.60001 17.3001 3.60001H15.5001ZM5.3001 15C5.3001 14.8409 5.23688 14.6883 5.12436 14.5757C5.01184 14.4632 4.85923 14.4 4.7001 14.4C4.54097 14.4 4.38836 14.4632 4.27583 14.5757C4.16331 14.6883 4.1001 14.8409 4.1001 15V16.8C4.1001 17.7548 4.47938 18.6705 5.15451 19.3456C5.82964 20.0207 6.74532 20.4 7.7001 20.4H9.5001C9.65923 20.4 9.81184 20.3368 9.92436 20.2243C10.0369 20.1117 10.1001 19.9591 10.1001 19.8C10.1001 19.6409 10.0369 19.4883 9.92436 19.3757C9.81184 19.2632 9.65923 19.2 9.5001 19.2H7.7001C7.06358 19.2 6.45313 18.9471 6.00304 18.4971C5.55295 18.047 5.3001 17.4365 5.3001 16.8V15ZM20.9001 15C20.9001 14.8409 20.8369 14.6883 20.7244 14.5757C20.6118 14.4632 20.4592 14.4 20.3001 14.4C20.141 14.4 19.9884 14.4632 19.8758 14.5757C19.7633 14.6883 19.7001 14.8409 19.7001 15V16.8C19.7001 17.4365 19.4472 18.047 18.9972 18.4971C18.5471 18.9471 17.9366 19.2 17.3001 19.2H15.5001C15.341 19.2 15.1884 19.2632 15.0758 19.3757C14.9633 19.4883 14.9001 19.6409 14.9001 19.8C14.9001 19.9591 14.9633 20.1117 15.0758 20.2243C15.1884 20.3368 15.341 20.4 15.5001 20.4H17.3001C18.2549 20.4 19.1706 20.0207 19.8457 19.3456C20.5208 18.6705 20.9001 17.7548 20.9001 16.8V15ZM8.3001 11.4C8.14097 11.4 7.98836 11.4632 7.87583 11.5757C7.76331 11.6883 7.7001 11.8409 7.7001 12C7.7001 12.1591 7.76331 12.3117 7.87583 12.4243C7.98836 12.5368 8.14097 12.6 8.3001 12.6H16.7001C16.8592 12.6 17.0118 12.5368 17.1244 12.4243C17.2369 12.3117 17.3001 12.1591 17.3001 12C17.3001 11.8409 17.2369 11.6883 17.1244 11.5757C17.0118 11.4632 16.8592 11.4 16.7001 11.4H8.3001Z" fill="white"/>
</svg>
