<svg width="46" height="35" viewBox="0 0 46 35" fill="none" xmlns="http://www.w3.org/2000/svg">
<path d="M6.44511 23.9132L15.204 19.2497C16.1807 18.7148 17.8821 19.0993 17.8821 19.8347V22.8267H36.8493C38.5822 22.8267 40 23.5789 40 24.4982C40 25.4175 38.5822 26.1697 36.8493 26.1697H17.9136V29.1617C17.9136 29.9139 16.2123 30.2816 15.2355 29.7467L6.47662 25.0832C5.84648 24.7657 5.84648 24.2308 6.44511 23.9132Z" fill="#F5EE31"/>
<path d="M39.5549 9.91319L30.796 5.24971C29.8193 4.71483 28.1179 5.09928 28.1179 5.83474V8.82671H9.15069C7.41781 8.82671 6 9.57889 6 10.4982C6 11.4175 7.41781 12.1697 9.15069 12.1697H28.0864V15.1617C28.0864 15.9139 29.7877 16.2816 30.7645 15.7467L39.5234 11.0832C40.1535 10.7657 40.1535 10.2308 39.5549 9.91319Z" fill="#F5EE31"/>
</svg>
